#!OML:ASF F:\VICON\USERDATA\INSTALL\rory3\rory3.ASF
:FULLY-SPECIFIED
:DEGREES
80
root -13.3928 17.542 0.257754 -0.379265 -8.17557 -3.90038
lowerback 9.79105 3.06232 3.35843
upperback 0.247245 4.49643 0.910714
thorax -5.04133 2.14687 -1.55399
lowerneck -21.8741 -5.91903 -12.1037
upperneck 27.7768 -7.06351 9.20686
head 13.9119 -3.12781 4.43471
rclavicle -4.69411e-014 -2.03754e-015
rhumerus -27.8408 -9.34212 -82.8622
rradius 39.1129
rwrist 0.766331
rhand -15.8588 9.28595
rfingers 7.12502
rthumb 10.3363 -20.44
lclavicle -4.69411e-014 -2.03754e-015
lhumerus -37.0258 6.96335 82.6216
lradius 26.7684
lwrist -9.7844
lhand -17.9959 24.9325
lfingers 7.12502
lthumb 8.27428 54.7505
rfemur 11.408 3.84183 28.9058
rtibia 18.8065
rfoot -18.0405 -2.05268
rtoes -1.08848
lfemur -22.628 -4.49212 -13.1639
ltibia 7.60006
lfoot -4.9461 7.66892
ltoes -16.4268
81
root -13.3824 17.5275 0.418232 -0.325057 -8.25548 -3.78999
lowerback 9.68925 3.08885 3.27678
upperback 0.219524 4.51689 0.864294
thorax -5.01478 2.15895 -1.55404
lowerneck -21.8952 -5.92867 -12.1272
upperneck 27.8333 -7.0834 9.24509
head 13.9463 -3.13396 4.45281
rclavicle -5.8671e-014 4.05024e-015
rhumerus -27.8054 -9.63375 -82.8297
rradius 39.1096
rwrist 0.867416
rhand -15.6536 9.2604
rfingers 7.12502
rthumb 10.5343 -20.4556
lclavicle -5.8671e-014 4.05024e-015
lhumerus -37.12 6.97244 82.626
lradius 26.6115
lwrist -9.77652
lhand -18.0888 25.2571
lfingers 7.12502
lthumb 8.18462 55.0786
rfemur 11.8587 3.98374 28.7171
rtibia 18.9626
rfoot -17.877 -2.08757
rtoes -1.75367
lfemur -22.6762 -4.19353 -13.5404
ltibia 7.94034
lfoot -4.52904 7.54243
ltoes -15.4129
82
root -13.3722 17.5178 0.58485 -0.249854 -8.3178 -3.7204
lowerback 9.59554 3.09058 3.24595
upperback 0.130328 4.51224 0.81243
thorax -5.05411 2.15531 -1.5875
lowerneck -21.9368 -5.91436 -12.0621
upperneck 27.9378 -7.07533 9.20016
head 13.9937 -3.12951 4.42823
rclavicle -1.32875e-014 -3.40419e-015
rhumerus -27.952 -9.83166 -82.8443
rradius 39.1554
rwrist 0.79947
rhand -15.411 9.51203
rfingers 7.12502
rthumb 10.7683 -20.192
lclavicle -1.32875e-014 -3.40419e-015
lhumerus -37.3586 6.98859 82.5572
lradius 26.5348
lwrist -9.83001
lhand -18.0297 25.3601
lfingers 7.12502
lthumb 8.24169 55.1794
rfemur 12.2372 4.19236 28.6024
rtibia 19.2296
rfoot -17.6689 -2.23919
rtoes -2.57696
lfemur -22.7394 -3.92141 -13.8983
ltibia 8.54866
lfoot -3.91293 7.42993
ltoes -14.7403
83
root -13.3611 17.5077 0.752241 -0.272876 -8.3151 -3.63005
lowerback 9.52585 3.07596 3.16865
upperback 0.069503 4.48296 0.800417
thorax -5.08507 2.14156 -1.55115
lowerneck -21.8225 -5.86467 -11.9638
upperneck 28.0081 -7.00504 9.03777
head 13.9775 -3.1138 4.36096
rclavicle 2.32423e-014 -5.96354e-016
rhumerus -28.1247 -9.95225 -82.8208
rradius 39.1787
rwrist 0.636987
rhand -15.3175 9.94776
rfingers 7.12502
rthumb 10.8585 -19.7515
lclavicle 2.32423e-014 -5.96354e-016
lhumerus -37.5896 7.2468 82.4342
lradius 26.3203
lwrist -9.97648
lhand -18.0726 25.0942
lfingers 7.12502
lthumb 8.20028 54.915
rfemur 12.6528 4.42292 28.5065
rtibia 19.5003
rfoot -17.3083 -2.46276
rtoes -3.67724
lfemur -22.8285 -3.7277 -14.2914
ltibia 9.53793
lfoot -3.44558 7.20006
ltoes -14.6346
84
root -13.3499 17.4959 0.923096 -0.474422 -8.38313 -3.6035
lowerback 9.54555 3.06935 3.11079
upperback 0.104285 4.47044 0.855437
thorax -5.06905 2.1381 -1.46034
lowerneck -21.6541 -5.85386 -12.1443
upperneck 28.0073 -6.96271 9.09846
head 13.947 -3.11151 4.42658
rclavicle -1.02778e-014 -7.97623e-015
rhumerus -28.2418 -9.94604 -82.8061
rradius 39.2394
rwrist 0.319039
rhand -15.7544 9.87293
rfingers 7.12502
rthumb 10.4371 -19.848
lclavicle -1.02778e-014 -7.97623e-015
lhumerus -37.7013 7.88794 82.2076
lradius 25.9049
lwrist -10.4619
lhand -18.056 24.8322
lfingers 7.12502
lthumb 8.21631 54.6524
rfemur 13.3435 4.58057 28.4698
rtibia 19.6726
rfoot -16.7347 -2.59581
rtoes -6.38708
lfemur -22.8287 -3.48623 -14.6444
ltibia 10.85
lfoot -3.04761 6.65903
ltoes -14.9861
85
root -13.3355 17.4952 1.09842 -0.67767 -8.46581 -3.58963
lowerback 9.56011 3.06789 3.12618
upperback 0.150237 4.47103 0.888652
thorax -5.03054 2.13959 -1.43371
lowerneck -21.6418 -5.86369 -12.3444
upperneck 28.1076 -6.94264 9.19362
head 13.9987 -3.11364 4.5085
rclavicle 6.43798e-015 1.23246e-014
rhumerus -28.4158 -9.85051 -82.8392
rradius 39.3509
rwrist -0.233765
rhand -16.5805 9.32138
rfingers 7.12502
rthumb 9.64009 -20.438
lclavicle 6.43798e-015 1.23246e-014
lhumerus -37.7691 8.39597 82.0174
lradius 25.4913
lwrist -10.9271
lhand -18.0644 24.8955
lfingers 7.12502
lthumb 8.20818 54.716
rfemur 14.0492 4.68561 28.3946
rtibia 19.8839
rfoot -16.1417 -2.47923
rtoes -8.33436
lfemur -22.831 -2.99842 -15.0698
ltibia 12.1289
lfoot -1.97061 5.40394
ltoes -13.4146
86
root -13.3208 17.5106 1.27698 -0.824481 -8.54641 -3.33919
lowerback 9.47164 3.10037 2.9614
upperback 0.205947 4.48681 0.806454
thorax -4.92755 2.15328 -1.42178
lowerneck -21.7262 -5.82229 -12.0946
upperneck 28.1734 -6.89398 8.96688
head 14.016 -3.09406 4.38243
rclavicle -1.0378e-014 -7.19352e-015
rhumerus -28.6007 -9.94998 -82.8347
rradius 39.4298
rwrist -0.395042
rhand -17.0329 9.06156
rfingers 7.12502
rthumb 9.20358 -20.7176
lclavicle -1.0378e-014 -7.19352e-015
lhumerus -37.7382 8.46251 82.0018
lradius 25.2213
lwrist -11.016
lhand -18.0669 25.451
lfingers 7.12502
lthumb 8.20577 55.2717
rfemur 14.5584 4.88402 28.0742
rtibia 20.2656
rfoot -15.4533 -2.41538
rtoes -9.48108
lfemur -22.8859 -2.74871 -15.6354
ltibia 13.234
lfoot -0.294528 4.19259
ltoes -11.1867
